<svg width="40" height="40" viewBox="0 0 40 40" fill="none" xmlns="http://www.w3.org/2000/svg">
<path fill-rule="evenodd" clip-rule="evenodd" d="M39.5527 19.6184C39.5527 30.4533 30.7693 39.2367 19.9344 39.2367C9.09942 39.2367 0.315979 30.4533 0.315979 19.6184C0.315979 8.78344 9.09942 0 19.9344 0C30.7693 0 39.5527 8.78344 39.5527 19.6184ZM29.9739 14.5405H28.1275V18.0014L24.6654 18.0027V19.8492L28.1275 19.8467V23.3111H29.9739V19.8467L33.436 19.8492V18.0027L29.9739 18.0014V14.5405ZM18.6864 25.6646C19.5796 25.6646 20.383 25.5109 21.0965 25.2035C21.8099 24.896 22.3755 24.4436 22.7931 23.8461C23.2107 23.2487 23.4196 22.5323 23.4196 21.6971C23.4196 20.2353 22.7293 19.1971 21.3488 18.5822C21.9288 18.3386 22.3697 17.9877 22.6713 17.5294C22.9729 17.0712 23.1237 16.5172 23.1237 15.8676C23.1237 15.2759 22.9584 14.7191 22.6278 14.197C22.2972 13.675 21.7983 13.2516 21.1313 12.9267C20.4642 12.6019 19.6492 12.4395 18.6864 12.4395C17.7351 12.4395 16.9259 12.6019 16.2589 12.9267C15.5918 13.2516 15.0901 13.675 14.7536 14.197C14.4172 14.7191 14.249 15.2759 14.249 15.8676C14.249 16.5172 14.3998 17.0712 14.7014 17.5294C15.0031 17.9877 15.4439 18.3386 16.0239 18.5822C14.6434 19.1971 13.9532 20.2353 13.9532 21.6971C13.9532 22.5323 14.162 23.2487 14.5796 23.8461C14.9973 24.4436 15.5657 24.896 16.285 25.2035C17.0042 25.5109 17.8047 25.6646 18.6864 25.6646ZM12.0606 25.4034V13.1006H7.08383V15.8848H8.92838V25.4034H12.0606ZM17.5876 17.4598C17.8602 17.7092 18.2285 17.8339 18.6926 17.8339C19.1566 17.8339 19.5249 17.7092 19.7975 17.4598C20.0702 17.2104 20.2065 16.8479 20.2065 16.3722C20.2065 15.9082 20.0673 15.5427 19.7888 15.2759C19.5104 15.0091 19.145 14.8757 18.6926 14.8757C18.2401 14.8757 17.8747 15.0091 17.5963 15.2759C17.3178 15.5427 17.1786 15.9082 17.1786 16.3722C17.1786 16.8479 17.3149 17.2104 17.5876 17.4598ZM18.6898 23.2112C18.1213 23.2112 17.6718 23.0604 17.3412 22.7587C17.0105 22.4571 16.8452 22.0453 16.8452 21.5232C16.8452 21.0012 17.0163 20.5923 17.3586 20.2964C17.7008 20.0006 18.1445 19.8527 18.6898 19.8527C19.235 19.8527 19.6788 20.0006 20.021 20.2964C20.3632 20.5923 20.5343 21.0012 20.5343 21.5232C20.5343 22.0453 20.369 22.4571 20.0384 22.7587C19.7078 23.0604 19.2582 23.2112 18.6898 23.2112Z" fill="white"/>
</svg>
