<svg width="48" height="48" viewBox="0 0 48 48" fill="none" xmlns="http://www.w3.org/2000/svg">
<mask id="path-1-inside-1_617_46" fill="white">
<path d="M28.8495 0.495062C24.2007 -0.464083 19.3718 -0.0231491 14.9736 1.76211C10.5754 3.54736 6.80527 6.59676 4.1401 10.5247C1.47493 14.4526 0.0343802 19.0826 0.000607472 23.8292C-0.0331653 28.5759 1.34136 33.2259 3.95037 37.1914C6.55937 41.1568 10.2857 44.2595 14.6581 46.1072C19.0305 47.9549 23.8526 48.4645 28.5146 47.5716C33.1766 46.6787 37.4691 44.4234 40.8494 41.0909C44.2296 37.7584 46.5458 33.4984 47.5049 28.8495L43.247 27.971C42.4616 31.7777 40.565 35.2661 37.7971 37.9949C35.0292 40.7237 31.5142 42.5704 27.6968 43.3016C23.8793 44.0327 19.9307 43.6154 16.3504 42.1025C12.77 40.5895 9.71874 38.0489 7.58236 34.8018C5.44597 31.5546 4.32044 27.747 4.3481 23.8602C4.37575 19.9734 5.55535 16.1821 7.73772 12.9657C9.9201 9.74935 13.0072 7.25236 16.6087 5.7905C20.2102 4.32864 24.1643 3.96758 27.971 4.75298L28.8495 0.495062Z"/>
</mask>
<path d="M28.8495 0.495062C24.2007 -0.464083 19.3718 -0.0231491 14.9736 1.76211C10.5754 3.54736 6.80527 6.59676 4.1401 10.5247C1.47493 14.4526 0.0343802 19.0826 0.000607472 23.8292C-0.0331653 28.5759 1.34136 33.2259 3.95037 37.1914C6.55937 41.1568 10.2857 44.2595 14.6581 46.1072C19.0305 47.9549 23.8526 48.4645 28.5146 47.5716C33.1766 46.6787 37.4691 44.4234 40.8494 41.0909C44.2296 37.7584 46.5458 33.4984 47.5049 28.8495L43.247 27.971C42.4616 31.7777 40.565 35.2661 37.7971 37.9949C35.0292 40.7237 31.5142 42.5704 27.6968 43.3016C23.8793 44.0327 19.9307 43.6154 16.3504 42.1025C12.77 40.5895 9.71874 38.0489 7.58236 34.8018C5.44597 31.5546 4.32044 27.747 4.3481 23.8602C4.37575 19.9734 5.55535 16.1821 7.73772 12.9657C9.9201 9.74935 13.0072 7.25236 16.6087 5.7905C20.2102 4.32864 24.1643 3.96758 27.971 4.75298L28.8495 0.495062Z" stroke="#FF0000" stroke-width="6" mask="url(#path-1-inside-1_617_46)"/>
<path d="M21.72 25.78H24.32V31H12.7V28.5L17.82 24.1C18.6067 23.42 19.14 22.86 19.42 22.42C19.7 21.9667 19.84 21.5067 19.84 21.04C19.84 20.7067 19.72 20.4333 19.48 20.22C19.24 20.0067 18.9133 19.9 18.5 19.9C17.9133 19.9 17.48 20.0867 17.2 20.46C16.9333 20.8333 16.8 21.3133 16.8 21.9H12.92C12.92 20.2467 13.4 18.9667 14.36 18.06C15.32 17.1533 16.74 16.7 18.62 16.7C19.8733 16.7 20.8933 16.9 21.68 17.3C22.48 17.6867 23.0533 18.1933 23.4 18.82C23.76 19.4333 23.94 20.0933 23.94 20.8C23.94 21.7733 23.6867 22.64 23.18 23.4C22.6867 24.16 21.9133 24.9933 20.86 25.9L18.54 27.9H21.42L21.72 25.78ZM33.2273 17V27.94L35.7873 28.48V31H26.5473V28.48L29.4273 27.94V20.26L26.5273 21.7V18.74L30.0273 17H33.2273Z" fill="white"/>
<path d="M42.56 10.56H46.36V13.06H42.56V16.86H40.06V13.06H36.26V10.56H40.06V6.76H42.56V10.56Z" fill="white"/>
</svg>
