<svg width="24" height="24" viewBox="0 0 24 24" fill="none" xmlns="http://www.w3.org/2000/svg">
<path d="M19.1864 7.62792C19.1864 7.15035 19.1648 6.67277 19.1648 6.24068C19.1648 5.89956 18.9056 5.60392 18.5599 5.60392C16.0106 5.60392 14.0445 4.8307 12.4242 3.17056C12.1866 2.94315 11.8193 2.94315 11.5816 3.17056C9.96129 4.8307 8.01689 5.60392 5.44596 5.60392C5.12189 5.60392 4.84103 5.87682 4.84103 6.24068C4.84103 6.67277 4.84103 7.15035 4.81943 7.62792C4.73301 12.1535 4.62499 18.3392 11.7761 20.9545C11.8409 20.9773 11.9057 21 11.9705 21C12.0353 21 12.1001 21 12.165 20.9545C19.3592 18.3392 19.2512 12.1535 19.1864 7.62792ZM14.9087 10.698L11.6032 14.1775C11.4952 14.2912 11.344 14.3594 11.1711 14.3594C11.0199 14.3594 10.8687 14.2912 10.7391 14.1775L9.09711 12.4491C8.85946 12.199 8.85946 11.8124 9.09711 11.5622C9.33476 11.3121 9.70204 11.3121 9.93969 11.5622L11.1711 12.8585L14.0661 9.81112C14.3038 9.56096 14.6711 9.56096 14.9087 9.81112C15.1464 10.0613 15.1464 10.4479 14.9087 10.698Z" fill="#4FFF6D"/>
</svg>
