<svg width="146" height="38" viewBox="0 0 146 38" fill="none" xmlns="http://www.w3.org/2000/svg">
<g clip-path="url(#clip0_704_3169)">
<path d="M2.22635 10.3451C0.858474 9.27287 0.115429 8.03056 0.115429 6.28755C0.115429 3.30696 2.12081 1.78123 4.25284 1.78123C6.78595 1.78123 8.21715 3.67068 8.21715 6.43398V7.00554H5.53206V6.33479C5.53206 5.42786 5.0381 4.64374 4.2064 4.64374C4.04898 4.63293 3.89129 4.65934 3.7436 4.72125C3.59591 4.78316 3.46153 4.87918 3.34921 5.00307C3.2369 5.12695 3.14916 5.27591 3.09172 5.44025C3.03428 5.6046 3.00843 5.78063 3.01584 5.9569C3.01584 7.02916 3.43802 7.37398 4.35839 8.17227L6.32155 9.84442C7.5881 10.9403 8.41136 12.0645 8.41136 13.7556C8.41136 16.6653 6.46931 18.3847 4.18951 18.3847C1.90971 18.3847 0.0985413 16.5945 0.0985413 13.9965V13.1368H2.80475V13.7792C2.79021 13.9992 2.81645 14.2202 2.88183 14.4283C2.94722 14.6364 3.05034 14.8272 3.18471 14.9886C3.31909 15.1501 3.48183 15.2787 3.66273 15.3664C3.84363 15.4542 4.03878 15.4992 4.23595 15.4986C4.40924 15.486 4.57861 15.4353 4.73438 15.3494C4.89014 15.2635 5.02924 15.1441 5.14373 14.998C5.25823 14.8519 5.34586 14.682 5.40162 14.498C5.45739 14.314 5.48019 14.1195 5.46873 13.9256C5.46873 13.1368 5.13098 12.6833 4.3415 12.0362L2.22635 10.3451Z" fill="white"/>
<path d="M13.1907 18.1957C10.9911 18.1957 10.1383 17.1423 10.1383 14.7097V8.96106H8.81689V6.26388H10.1383V3.42972H12.891V6.26388H14.5037V8.96106H12.8825V14.2562C12.8825 15.0923 13.0725 15.4749 13.8409 15.4749H14.5248V18.1957H13.1907Z" fill="white"/>
<path d="M20.6577 10.345C20.6577 9.9591 20.5207 9.58905 20.2768 9.31621C20.0329 9.04337 19.7022 8.89009 19.3573 8.89009C19.0125 8.89009 18.6817 9.04337 18.4379 9.31621C18.194 9.58905 18.057 9.9591 18.057 10.345V14.1238C18.057 14.5097 18.194 14.8797 18.4379 15.1526C18.6817 15.4254 19.0125 15.5787 19.3573 15.5787C19.7022 15.5787 20.0329 15.4254 20.2768 15.1526C20.5207 14.8797 20.6577 14.5097 20.6577 14.1238V10.345ZM23.4061 14.0435C23.4061 16.7643 21.7638 18.4081 19.3573 18.4081C16.9509 18.4081 15.3044 16.7643 15.3044 14.0435V10.463C15.3044 7.74225 16.9678 6.07482 19.3573 6.07482C21.7469 6.07482 23.4061 7.74225 23.4061 10.463V14.0435Z" fill="white"/>
<path d="M29.9214 10.6806C29.9214 9.53274 29.4992 8.81948 28.6548 8.81948C27.8104 8.81948 27.3123 9.53274 27.3123 10.6806V13.8737C27.3123 14.9743 27.6964 15.6404 28.6126 15.6404C29.4232 15.6404 29.934 15.0216 29.934 14.0438L29.9214 10.6806ZM24.5681 18.7721V6.26401H27.1687V7.10009C27.453 6.75788 27.8014 6.49024 28.189 6.3163C28.5765 6.14236 28.9937 6.06644 29.4105 6.09396C31.5636 6.09396 32.674 7.76139 32.674 10.4113V14.1099C32.674 16.6134 31.3737 18.4037 29.2585 18.4037C28.8893 18.4228 28.5211 18.3476 28.1817 18.184C27.8423 18.0203 27.5407 17.7724 27.2996 17.4589V18.8005L24.5681 18.7721Z" fill="white"/>
<path d="M20.9822 23.6841C20.9616 23.3295 20.8172 22.9981 20.5804 22.7613C20.3435 22.5246 20.033 22.4014 19.7157 22.4182C19.0106 22.4182 18.6096 22.8244 18.6096 23.3629C18.6096 25.3185 23.8531 24.0053 23.8531 28.3038C23.8531 30.8782 21.911 32.1441 19.7368 32.1441C17.6892 32.1441 15.8147 31.1663 15.7303 28.2046H18.4576C18.4605 28.4022 18.5004 28.597 18.5747 28.7763C18.6489 28.9557 18.7559 29.1156 18.8887 29.246C19.0215 29.3763 19.1772 29.4741 19.3458 29.5332C19.5144 29.5922 19.6922 29.6111 19.8677 29.5886C20.5263 29.5886 21.0793 29.1588 21.0793 28.54C21.0793 26.5608 15.8569 27.8503 15.8569 23.6038C15.8569 21.242 17.4148 19.825 19.9099 19.825C21.6788 19.825 23.5111 20.6138 23.6167 23.67L20.9822 23.6841Z" fill="#96B4DC"/>
<path d="M36.6003 20.0334H33.8266V31.9652H36.6003V20.0334Z" fill="#96B4DC"/>
<path d="M40.6618 15.7398H37.9091V31.9654H40.6618V15.7398Z" fill="#96B4DC"/>
<path d="M44.6924 15.7398H41.9398V31.9654H44.6924V15.7398Z" fill="#96B4DC"/>
<path d="M51.0849 24.2091C51.0849 23.2077 50.574 22.5842 49.7845 22.5842C48.9951 22.5842 48.4842 23.1605 48.4842 24.2091V24.7334H51.0849V24.2091ZM48.4842 26.7835V27.8227C48.4842 28.8005 48.9317 29.2775 49.8479 29.2775C50.8484 29.2775 51.1693 28.7013 51.1904 28.0352H53.8164C53.7489 30.756 52.1741 32.14 49.8056 32.14C47.4372 32.14 45.7316 30.4679 45.7316 27.8888V24.2375C45.7316 21.4694 47.5005 19.8256 49.8479 19.8256C52.1952 19.8256 53.8164 21.493 53.8164 24.2138V26.7646L48.4842 26.7835Z" fill="#96B4DC"/>
<path d="M58.5873 31.9606C56.3877 31.9606 55.5349 30.9119 55.5349 28.4793V22.7307H54.2135V20.0335H55.5349V17.1993H58.2876V20.0335H59.9088V22.7307H58.2876V28.0258C58.2876 28.8619 58.4776 29.2445 59.2459 29.2445H59.9299V31.9606H58.5873Z" fill="#96B4DC"/>
<path d="M33.624 16.6082C33.6265 16.257 33.7221 15.9144 33.8986 15.6239C34.0751 15.3334 34.3246 15.108 34.6156 14.9762C34.9066 14.8444 35.2261 14.8121 35.5335 14.8833C35.8409 14.9546 36.1225 15.1263 36.3428 15.3767C36.563 15.627 36.7119 15.9448 36.7707 16.2899C36.8295 16.6349 36.7955 16.9917 36.6731 17.3152C36.5506 17.6386 36.3452 17.9142 36.0828 18.107C35.8203 18.2998 35.5127 18.4013 35.1988 18.3985C34.7784 18.3923 34.3773 18.2008 34.0824 17.8656C33.7876 17.5304 33.6229 17.0785 33.624 16.6082Z" fill="white"/>
<path d="M29.9214 24.4455C29.9214 23.3024 29.4992 22.5844 28.6548 22.5844C27.8104 22.5844 27.3123 23.3024 27.3123 24.4455V27.6434C27.3123 28.744 27.6964 29.41 28.6126 29.41C29.4232 29.41 29.934 28.7912 29.934 27.8134L29.9214 24.4455ZM24.5681 36.3537V20.0336H27.2954V20.8697C27.5499 20.5245 27.8739 20.2517 28.2408 20.0735C28.6077 19.8954 29.0071 19.817 29.4063 19.8447C31.5594 19.8447 32.6698 21.5121 32.6698 24.1621V27.8606C32.6698 30.3642 31.3694 32.1544 29.2543 32.1544C28.8851 32.1735 28.5169 32.0984 28.1775 31.9347C27.8381 31.771 27.5364 31.5231 27.2954 31.2097V36.3631L24.5681 36.3537Z" fill="#96B4DC"/>
</g>
<path d="M73.2473 6.30782V7.89722H68.4713V6.30782H73.2473ZM68.9154 1.58637V12.9303H67.0222V1.58637H68.9154ZM74.7277 1.58637V12.9303H72.8422V1.58637H74.7277Z" fill="#96B4DC"/>
<path d="M77.271 4.50027H79.0941V13.6471C79.0941 14.2237 79.0084 14.7119 78.837 15.1119C78.6708 15.5118 78.4241 15.8157 78.0969 16.0234C77.7696 16.2312 77.3645 16.3351 76.8814 16.3351C76.736 16.3351 76.5828 16.3221 76.4218 16.2961C76.2659 16.2753 76.1179 16.2442 75.9777 16.2026L75.9855 14.7067C76.0841 14.7275 76.1828 14.7431 76.2815 14.7535C76.3802 14.769 76.4685 14.7768 76.5464 14.7768C76.7074 14.7768 76.8399 14.7379 76.9438 14.66C77.0529 14.5821 77.1334 14.46 77.1853 14.2938C77.2424 14.1276 77.271 13.912 77.271 13.6471V4.50027ZM77.1386 2.29537C77.1386 2.00449 77.2269 1.76297 77.4035 1.57079C77.5852 1.37341 77.8294 1.27472 78.1358 1.27472C78.4527 1.27472 78.6994 1.37341 78.876 1.57079C79.0578 1.76297 79.1487 2.00449 79.1487 2.29537C79.1487 2.57585 79.0578 2.81218 78.876 3.00436C78.6994 3.19654 78.4527 3.29264 78.1358 3.29264C77.8294 3.29264 77.5852 3.19654 77.4035 3.00436C77.2269 2.81218 77.1386 2.57585 77.1386 2.29537Z" fill="#96B4DC"/>
<path d="M85.4162 11.5045V7.383C85.4162 7.06616 85.3747 6.79607 85.2916 6.57272C85.2084 6.34418 85.0864 6.17018 84.9254 6.05071C84.7695 5.93125 84.5774 5.87152 84.3488 5.87152C84.1099 5.87152 83.9021 5.92605 83.7255 6.03513C83.5489 6.14421 83.4113 6.28964 83.3126 6.47144C83.2139 6.64804 83.1646 6.84801 83.1646 7.07136L81.357 6.92333C81.357 6.54935 81.4271 6.20654 81.5674 5.89489C81.7128 5.58324 81.918 5.31055 82.1829 5.07682C82.4478 4.84308 82.7646 4.66388 83.1334 4.53922C83.5022 4.40937 83.9151 4.34445 84.3722 4.34445C84.9332 4.34445 85.4214 4.45872 85.8369 4.68726C86.2577 4.9106 86.5849 5.24822 86.8186 5.70011C87.0576 6.152 87.177 6.71816 87.177 7.39859V11.2318L85.4162 11.5045ZM85.7201 7.9128L85.7279 9.21393H84.3099C84.019 9.21393 83.7723 9.27626 83.5697 9.40092C83.3671 9.52038 83.2139 9.6814 83.11 9.88397C83.0061 10.0813 82.9542 10.2943 82.9542 10.5228C82.9542 10.741 82.9906 10.9358 83.0633 11.1072C83.1412 11.2786 83.2581 11.4136 83.4139 11.5123C83.5697 11.6058 83.7697 11.6526 84.0138 11.6526C84.206 11.6526 84.4034 11.6084 84.6059 11.5201C84.8137 11.4266 85.0059 11.3072 85.1825 11.1617C85.3591 11.0163 85.5019 10.8631 85.611 10.702C85.7201 10.541 85.7746 10.3904 85.7746 10.2502L86.6161 11.4188C86.5018 11.6733 86.3174 11.9305 86.0629 12.1902C85.8084 12.4447 85.4811 12.6602 85.0812 12.8368C84.6864 13.0082 84.2112 13.0939 83.6554 13.0939C83.1204 13.0939 82.6633 12.9875 82.2842 12.7745C81.9102 12.5563 81.6245 12.2525 81.4271 11.8629C81.2349 11.4734 81.1389 11.0189 81.1389 10.4995C81.1389 10.0891 81.2064 9.72555 81.3414 9.40871C81.4817 9.08668 81.6816 8.81658 81.9413 8.59843C82.2062 8.37508 82.5361 8.20627 82.9308 8.092C83.3256 7.97254 83.7801 7.9128 84.2943 7.9128H85.7201ZM88.8833 13.0939C88.3275 13.0939 87.8367 12.9927 87.4108 12.7901C86.99 12.5875 86.6342 12.3018 86.3434 11.9331C86.0525 11.5643 85.8317 11.1306 85.6811 10.6319C85.5357 10.1333 85.463 9.58531 85.463 8.98799V8.5361C85.463 7.918 85.5357 7.35444 85.6811 6.84541C85.8317 6.3312 86.0447 5.8871 86.32 5.51312C86.5953 5.13915 86.9277 4.85087 87.3173 4.6483C87.712 4.44054 88.1561 4.33925 88.6496 4.34445C89.1274 4.34445 89.5507 4.43274 89.9195 4.60934C90.2935 4.78075 90.6051 5.03267 90.8545 5.36509C91.109 5.69751 91.3012 6.09746 91.431 6.56493C91.5661 7.0324 91.6336 7.5596 91.6336 8.14654V9.25289H86.281V7.9206H89.8494V7.69465C89.8494 7.34665 89.8104 7.0376 89.7325 6.7675C89.6546 6.49221 89.5274 6.27406 89.3508 6.11304C89.1742 5.95203 88.9404 5.87152 88.6496 5.87152C88.395 5.87152 88.1743 5.93904 87.9873 6.07409C87.8055 6.20913 87.6549 6.39872 87.5354 6.64284C87.4211 6.88697 87.3354 7.17005 87.2783 7.49208C87.2212 7.81412 87.1926 8.16212 87.1926 8.5361V8.98799C87.1926 9.34638 87.2264 9.6814 87.2939 9.99305C87.3666 10.3047 87.4757 10.58 87.6211 10.8189C87.7717 11.0526 87.9613 11.237 88.1899 11.3721C88.4184 11.5019 88.6937 11.5669 89.0157 11.5669C89.504 11.5669 89.8935 11.489 90.1844 11.3331C90.4753 11.1773 90.7376 11.0189 90.9713 10.8579L91.4855 12.1434C91.3661 12.2577 91.1843 12.3901 90.9402 12.5408C90.7012 12.6862 90.4078 12.8161 90.0598 12.9303C89.7169 13.0394 89.3248 13.0939 88.8833 13.0939Z" fill="#96B4DC"/>
<path d="M95.4781 0.963074V12.9303H93.6627V0.963074H95.4781Z" fill="#96B4DC"/>
<path d="M99.7121 6.12083V16.1715H97.9045V4.50027H99.5641L99.7121 6.12083ZM104.247 8.38028V9.05032C104.247 9.70997 104.187 10.2917 104.067 10.7955C103.948 11.2994 103.771 11.7227 103.538 12.0655C103.309 12.4031 103.026 12.6576 102.688 12.829C102.351 13.0004 101.956 13.0861 101.504 13.0861C101.078 13.0861 100.707 12.9927 100.39 12.8057C100.078 12.6187 99.816 12.3564 99.603 12.0188C99.3901 11.6811 99.2187 11.2812 99.0888 10.8189C98.9641 10.3514 98.8732 9.84242 98.8161 9.29184V8.26341C98.8732 7.68167 98.9615 7.15187 99.081 6.67401C99.2057 6.19095 99.3745 5.77542 99.5874 5.42742C99.8056 5.07941 100.07 4.81192 100.382 4.62493C100.694 4.43794 101.065 4.34445 101.496 4.34445C101.948 4.34445 102.346 4.42495 102.688 4.58597C103.031 4.74699 103.317 4.99371 103.545 5.32613C103.779 5.65856 103.953 6.07928 104.067 6.5883C104.187 7.09213 104.247 7.68946 104.247 8.38028ZM102.431 9.05032V8.38028C102.431 7.94916 102.403 7.57778 102.346 7.26614C102.294 6.9493 102.205 6.68959 102.081 6.48702C101.961 6.28445 101.808 6.13382 101.621 6.03513C101.439 5.93644 101.213 5.8871 100.943 5.8871C100.704 5.8871 100.494 5.93644 100.312 6.03513C100.13 6.13382 99.977 6.27146 99.8523 6.44806C99.7277 6.61947 99.629 6.82464 99.5563 7.06357C99.4836 7.2973 99.4368 7.55181 99.416 7.8271V9.73594C99.4628 10.0684 99.5407 10.3748 99.6498 10.6553C99.7588 10.9306 99.9173 11.1513 100.125 11.3175C100.338 11.4838 100.616 11.5669 100.959 11.5669C101.224 11.5669 101.45 11.5149 101.637 11.411C101.824 11.3072 101.974 11.1513 102.088 10.9436C102.208 10.7358 102.294 10.4761 102.346 10.1645C102.403 9.84761 102.431 9.47623 102.431 9.05032Z" fill="#96B4DC"/>
<path d="M109.486 13.0861C108.94 13.0861 108.455 13.0056 108.029 12.8446C107.603 12.6784 107.242 12.4343 106.946 12.1123C106.65 11.785 106.424 11.3851 106.268 10.9124C106.112 10.4345 106.034 9.88138 106.034 9.25289V8.44261C106.034 7.73101 106.115 7.1181 106.276 6.60389C106.442 6.08447 106.67 5.65856 106.961 5.32613C107.252 4.99371 107.595 4.74699 107.99 4.58597C108.39 4.42495 108.823 4.34445 109.291 4.34445C109.821 4.34445 110.28 4.43015 110.67 4.60155C111.059 4.77296 111.379 5.03007 111.628 5.37288C111.883 5.71569 112.07 6.13901 112.189 6.64284C112.314 7.14667 112.376 7.72582 112.376 8.38028V9.29184H106.907V7.9206H110.584V7.72582C110.574 7.34145 110.527 7.01163 110.444 6.73634C110.361 6.45585 110.226 6.2429 110.039 6.09746C109.857 5.94683 109.605 5.87152 109.283 5.87152C109.049 5.87152 108.842 5.91567 108.66 6.00397C108.478 6.09227 108.327 6.2351 108.208 6.43248C108.094 6.62986 108.005 6.89476 107.943 7.22718C107.881 7.55441 107.85 7.95955 107.85 8.44261V9.25289C107.85 9.67361 107.886 10.0294 107.959 10.3203C108.036 10.6111 108.151 10.8501 108.301 11.0371C108.452 11.2189 108.634 11.3539 108.847 11.4422C109.065 11.5253 109.317 11.5669 109.603 11.5669C110.023 11.5669 110.384 11.489 110.685 11.3331C110.992 11.1721 111.257 10.9643 111.48 10.7098L112.283 11.824C112.132 12.0265 111.929 12.2265 111.675 12.4239C111.42 12.6161 111.111 12.7745 110.748 12.8992C110.389 13.0238 109.969 13.0861 109.486 13.0861Z" fill="#96B4DC"/>
<path d="M116.236 0.963074V12.9303H114.421V0.963074H116.236Z" fill="#96B4DC"/>
<path d="M120.579 4.50027V12.9303H118.764V4.50027H120.579ZM118.671 2.29537C118.671 2.00449 118.759 1.76297 118.935 1.57079C119.112 1.37341 119.359 1.27472 119.676 1.27472C119.992 1.27472 120.239 1.37341 120.416 1.57079C120.592 1.76297 120.681 2.00449 120.681 2.29537C120.681 2.57585 120.592 2.81218 120.416 3.00436C120.239 3.19654 119.992 3.29264 119.676 3.29264C119.359 3.29264 119.112 3.19654 118.935 3.00436C118.759 2.81218 118.671 2.57585 118.671 2.29537Z" fill="#96B4DC"/>
<path d="M124.79 6.30003V12.9303H122.975V4.50027H124.681L124.79 6.30003ZM124.463 8.41144H123.886C123.881 7.80373 123.946 7.25055 124.081 6.75192C124.216 6.25328 124.408 5.82477 124.658 5.46637C124.912 5.10798 125.213 4.83269 125.561 4.64051C125.915 4.44313 126.307 4.34445 126.738 4.34445C127.07 4.34445 127.374 4.40158 127.649 4.51585C127.93 4.62493 128.169 4.80412 128.366 5.05344C128.564 5.30276 128.714 5.62739 128.818 6.02734C128.927 6.42729 128.982 6.91553 128.982 7.49208V12.9303H127.166V7.4765C127.166 7.08175 127.122 6.7701 127.034 6.54156C126.951 6.30782 126.826 6.14161 126.66 6.04292C126.494 5.93904 126.283 5.8871 126.029 5.8871C125.795 5.8871 125.58 5.95462 125.382 6.08967C125.19 6.21952 125.024 6.40132 124.884 6.63505C124.748 6.86359 124.645 7.13109 124.572 7.43754C124.499 7.7388 124.463 8.06343 124.463 8.41144Z" fill="#96B4DC"/>
<path d="M131.354 4.50027H133.177V13.6471C133.177 14.2237 133.091 14.7119 132.92 15.1119C132.753 15.5118 132.507 15.8157 132.179 16.0234C131.852 16.2312 131.447 16.3351 130.964 16.3351C130.819 16.3351 130.665 16.3221 130.504 16.2961C130.349 16.2753 130.201 16.2442 130.06 16.2026L130.068 14.7067C130.167 14.7275 130.265 14.7431 130.364 14.7535C130.463 14.769 130.551 14.7768 130.629 14.7768C130.79 14.7768 130.923 14.7379 131.026 14.66C131.135 14.5821 131.216 14.46 131.268 14.2938C131.325 14.1276 131.354 13.912 131.354 13.6471V4.50027ZM131.221 2.29537C131.221 2.00449 131.309 1.76297 131.486 1.57079C131.668 1.37341 131.912 1.27472 132.218 1.27472C132.535 1.27472 132.782 1.37341 132.959 1.57079C133.14 1.76297 133.231 2.00449 133.231 2.29537C133.231 2.57585 133.14 2.81218 132.959 3.00436C132.782 3.19654 132.535 3.29264 132.218 3.29264C131.912 3.29264 131.668 3.19654 131.486 3.00436C131.309 2.81218 131.221 2.57585 131.221 2.29537Z" fill="#96B4DC"/>
<path d="M138.759 13.0861C138.213 13.0861 137.728 13.0056 137.302 12.8446C136.876 12.6784 136.515 12.4343 136.219 12.1123C135.923 11.785 135.697 11.3851 135.541 10.9124C135.385 10.4345 135.307 9.88138 135.307 9.25289V8.44261C135.307 7.73101 135.388 7.1181 135.549 6.60389C135.715 6.08447 135.943 5.65856 136.234 5.32613C136.525 4.99371 136.868 4.74699 137.263 4.58597C137.663 4.42495 138.096 4.34445 138.564 4.34445C139.094 4.34445 139.553 4.43015 139.943 4.60155C140.332 4.77296 140.652 5.03007 140.901 5.37288C141.156 5.71569 141.343 6.13901 141.462 6.64284C141.587 7.14667 141.649 7.72582 141.649 8.38028V9.29184H136.18V7.9206H139.857V7.72582C139.847 7.34145 139.8 7.01163 139.717 6.73634C139.634 6.45585 139.499 6.2429 139.312 6.09746C139.13 5.94683 138.878 5.87152 138.556 5.87152C138.322 5.87152 138.115 5.91567 137.933 6.00397C137.751 6.09227 137.6 6.2351 137.481 6.43248C137.367 6.62986 137.278 6.89476 137.216 7.22718C137.154 7.55441 137.123 7.95955 137.123 8.44261V9.25289C137.123 9.67361 137.159 10.0294 137.232 10.3203C137.31 10.6111 137.424 10.8501 137.574 11.0371C137.725 11.2189 137.907 11.3539 138.12 11.4422C138.338 11.5253 138.59 11.5669 138.876 11.5669C139.296 11.5669 139.657 11.489 139.959 11.3331C140.265 11.1721 140.53 10.9643 140.753 10.7098L141.556 11.824C141.405 12.0265 141.203 12.2265 140.948 12.4239C140.693 12.6161 140.384 12.7745 140.021 12.8992C139.662 13.0238 139.242 13.0861 138.759 13.0861Z" fill="#96B4DC"/>
<path d="M143.709 11.9798C143.709 11.6785 143.806 11.4266 143.998 11.2241C144.195 11.0215 144.465 10.9202 144.808 10.9202C145.151 10.9202 145.418 11.0215 145.611 11.2241C145.808 11.4266 145.907 11.6785 145.907 11.9798C145.907 12.2707 145.808 12.5174 145.611 12.72C145.418 12.9225 145.151 13.0238 144.808 13.0238C144.465 13.0238 144.195 12.9225 143.998 12.72C143.806 12.5174 143.709 12.2707 143.709 11.9798ZM143.702 5.36509C143.702 5.06383 143.798 4.81192 143.99 4.60934C144.187 4.40677 144.457 4.30549 144.8 4.30549C145.143 4.30549 145.411 4.40677 145.603 4.60934C145.8 4.81192 145.899 5.06383 145.899 5.36509C145.899 5.65596 145.8 5.90268 145.603 6.10525C145.411 6.30782 145.143 6.40911 144.8 6.40911C144.457 6.40911 144.187 6.30782 143.99 6.10525C143.798 5.90268 143.702 5.65596 143.702 5.36509Z" fill="#96B4DC"/>
<path d="M71.8995 31.0008C71.8995 30.7671 71.8735 30.5593 71.8215 30.3775C71.7748 30.1906 71.6839 30.0217 71.5489 29.8711C71.4138 29.7205 71.2216 29.5725 70.9723 29.427C70.7282 29.2816 70.4113 29.1336 70.0218 28.9829C69.5751 28.8115 69.157 28.6245 68.7674 28.422C68.383 28.2142 68.0428 27.9805 67.7468 27.7208C67.4559 27.4559 67.2273 27.1468 67.0611 26.7936C66.8949 26.4404 66.8118 26.0301 66.8118 25.5626C66.8118 25.1003 66.8923 24.6796 67.0533 24.3004C67.2196 23.9161 67.4533 23.5862 67.7545 23.3109C68.061 23.0305 68.4246 22.8149 68.8453 22.6643C69.266 22.5085 69.7309 22.4305 70.2399 22.4305C70.9723 22.4305 71.5982 22.5864 72.1176 22.898C72.6422 23.2097 73.0422 23.6278 73.3174 24.1524C73.5979 24.677 73.7382 25.2587 73.7382 25.8976H71.8527C71.8527 25.5288 71.7956 25.2016 71.6813 24.9159C71.567 24.6303 71.3904 24.4069 71.1515 24.2459C70.9126 24.0849 70.6035 24.0044 70.2244 24.0044C69.8763 24.0044 69.5881 24.0719 69.3595 24.2069C69.1362 24.342 68.97 24.5264 68.8609 24.7601C68.757 24.9938 68.7051 25.2613 68.7051 25.5626C68.7051 25.7704 68.7492 25.9599 68.8375 26.1314C68.9258 26.2976 69.0531 26.4508 69.2193 26.591C69.3855 26.7313 69.5881 26.8637 69.827 26.9884C70.0659 27.113 70.3412 27.2325 70.6529 27.3468C71.1827 27.539 71.6449 27.7519 72.0397 27.9857C72.4344 28.2194 72.7591 28.4817 73.0136 28.7726C73.2733 29.0582 73.4655 29.3829 73.5901 29.7465C73.72 30.11 73.7849 30.523 73.7849 30.9853C73.7849 31.4527 73.7044 31.8786 73.5434 32.263C73.3876 32.6422 73.159 32.9668 72.8578 33.2369C72.5565 33.507 72.1929 33.7174 71.767 33.868C71.3411 34.0134 70.8632 34.0861 70.3334 34.0861C69.8452 34.0861 69.3751 34.0134 68.9232 33.868C68.4765 33.7226 68.0766 33.5018 67.7234 33.2057C67.3702 32.9045 67.0897 32.5279 66.8819 32.076C66.6794 31.6241 66.5781 31.0943 66.5781 30.4866H68.4713C68.4713 30.8502 68.5155 31.1619 68.6038 31.4216C68.6921 31.6761 68.8193 31.8864 68.9856 32.0527C69.157 32.2137 69.3569 32.3331 69.5855 32.411C69.8192 32.4838 70.0789 32.5201 70.3646 32.5201C70.7178 32.5201 71.0061 32.4578 71.2294 32.3331C71.458 32.2033 71.6268 32.0241 71.7358 31.7955C71.8449 31.567 71.8995 31.3021 71.8995 31.0008Z" fill="#96B4DC"/>
<path d="M79.2188 25.5003V26.9027H75.0817V25.5003H79.2188ZM76.2114 23.4356H78.019V31.5774C78.019 31.8371 78.0475 32.0345 78.1047 32.1695C78.1618 32.3046 78.2423 32.3955 78.3462 32.4422C78.4501 32.489 78.5721 32.5123 78.7124 32.5123C78.8163 32.5123 78.9175 32.5045 79.0162 32.489C79.1201 32.4682 79.1954 32.45 79.2422 32.4344V33.8992C79.1071 33.9511 78.9513 33.9952 78.7747 34.0316C78.5981 34.068 78.3851 34.0861 78.1358 34.0861C77.767 34.0861 77.4372 34.0108 77.1463 33.8602C76.8555 33.7044 76.6269 33.4525 76.4607 33.1045C76.2945 32.7513 76.2114 32.2838 76.2114 31.702V23.4356Z" fill="#96B4DC"/>
<path d="M80.6402 30.0581V29.3803C80.6402 28.7258 80.7207 28.1467 80.8817 27.6428C81.0428 27.139 81.2713 26.7183 81.5674 26.3807C81.8686 26.0379 82.2218 25.7808 82.627 25.6093C83.0321 25.4327 83.4788 25.3444 83.9671 25.3444C84.4657 25.3444 84.9176 25.4327 85.3227 25.6093C85.7331 25.7808 86.0863 26.0379 86.3823 26.3807C86.6836 26.7183 86.9147 27.139 87.0757 27.6428C87.2368 28.1467 87.3173 28.7258 87.3173 29.3803V30.0581C87.3173 30.7126 87.2368 31.2917 87.0757 31.7955C86.9147 32.2994 86.6836 32.7227 86.3823 33.0655C86.0863 33.4031 85.7357 33.6576 85.3305 33.829C84.9254 34.0004 84.4761 34.0861 83.9826 34.0861C83.4944 34.0861 83.0451 34.0004 82.6348 33.829C82.2296 33.6576 81.8764 33.4031 81.5752 33.0655C81.2739 32.7227 81.0428 32.2994 80.8817 31.7955C80.7207 31.2917 80.6402 30.7126 80.6402 30.0581ZM82.4556 29.3803V30.0581C82.4556 30.4788 82.4919 30.8476 82.5646 31.1645C82.6374 31.4761 82.7412 31.7358 82.8763 31.9436C83.0113 32.1513 83.1724 32.3072 83.3593 32.411C83.5463 32.5149 83.7541 32.5669 83.9826 32.5669C84.2371 32.5669 84.4579 32.5149 84.6449 32.411C84.8371 32.3072 84.9955 32.1513 85.1201 31.9436C85.25 31.7358 85.3461 31.4761 85.4084 31.1645C85.4708 30.8476 85.5019 30.4788 85.5019 30.0581V29.3803C85.5019 28.9647 85.4656 28.6012 85.3928 28.2895C85.3201 27.9727 85.2162 27.7104 85.0812 27.5026C84.9461 27.2896 84.7825 27.1312 84.5903 27.0273C84.4034 26.9235 84.1956 26.8715 83.9671 26.8715C83.7437 26.8715 83.5385 26.9235 83.3516 27.0273C83.1698 27.1312 83.0113 27.2896 82.8763 27.5026C82.7412 27.7104 82.6374 27.9727 82.5646 28.2895C82.4919 28.6012 82.4556 28.9647 82.4556 29.3803Z" fill="#96B4DC"/>
<path d="M91.1773 27.1208V37.1715H89.3698V25.5003H91.0293L91.1773 27.1208ZM95.7118 29.3803V30.0503C95.7118 30.71 95.6521 31.2917 95.5326 31.7955C95.4131 32.2994 95.2365 32.7227 95.0028 33.0655C94.7743 33.4031 94.4912 33.6576 94.1536 33.829C93.8159 34.0004 93.4212 34.0861 92.9693 34.0861C92.5434 34.0861 92.172 33.9927 91.8552 33.8057C91.5435 33.6187 91.2812 33.3564 91.0682 33.0188C90.8553 32.6811 90.6839 32.2812 90.554 31.8189C90.4294 31.3514 90.3385 30.8424 90.2813 30.2918V29.2634C90.3385 28.6817 90.4268 28.1519 90.5462 27.674C90.6709 27.191 90.8397 26.7754 91.0527 26.4274C91.2708 26.0794 91.5357 25.8119 91.8474 25.6249C92.159 25.4379 92.5304 25.3444 92.9615 25.3444C93.4134 25.3444 93.8107 25.425 94.1536 25.586C94.4964 25.747 94.782 25.9937 95.0106 26.3261C95.2443 26.6586 95.4183 27.0793 95.5326 27.5883C95.6521 28.0921 95.7118 28.6895 95.7118 29.3803ZM93.8964 30.0503V29.3803C93.8964 28.9492 93.8679 28.5778 93.8107 28.2661C93.7588 27.9493 93.6705 27.6896 93.5458 27.487C93.4264 27.2844 93.2732 27.1338 93.0862 27.0351C92.9044 26.9364 92.6784 26.8871 92.4083 26.8871C92.1694 26.8871 91.959 26.9364 91.7772 27.0351C91.5955 27.1338 91.4422 27.2715 91.3176 27.4481C91.1929 27.6195 91.0942 27.8246 91.0215 28.0636C90.9488 28.2973 90.902 28.5518 90.8813 28.8271V30.7359C90.928 31.0684 91.0059 31.3748 91.115 31.6553C91.2241 31.9306 91.3825 32.1513 91.5903 32.3176C91.8032 32.4838 92.0811 32.5669 92.4239 32.5669C92.6888 32.5669 92.9148 32.5149 93.1017 32.411C93.2887 32.3072 93.4394 32.1513 93.5536 31.9436C93.6731 31.7358 93.7588 31.4761 93.8107 31.1645C93.8679 30.8476 93.8964 30.4762 93.8964 30.0503Z" fill="#96B4DC"/>
<path d="M102.751 31.0008C102.751 30.7671 102.725 30.5593 102.673 30.3775C102.626 30.1906 102.535 30.0217 102.4 29.8711C102.265 29.7205 102.073 29.5725 101.824 29.427C101.579 29.2816 101.263 29.1336 100.873 28.9829C100.426 28.8115 100.008 28.6245 99.6186 28.422C99.2342 28.2142 98.894 27.9805 98.598 27.7208C98.3071 27.4559 98.0785 27.1468 97.9123 26.7936C97.7461 26.4404 97.663 26.0301 97.663 25.5626C97.663 25.1003 97.7435 24.6796 97.9045 24.3004C98.0707 23.9161 98.3045 23.5862 98.6057 23.3109C98.9122 23.0305 99.2758 22.8149 99.6965 22.6643C100.117 22.5085 100.582 22.4305 101.091 22.4305C101.824 22.4305 102.449 22.5864 102.969 22.898C103.493 23.2097 103.893 23.6278 104.169 24.1524C104.449 24.677 104.589 25.2587 104.589 25.8976H102.704C102.704 25.5288 102.647 25.2016 102.532 24.9159C102.418 24.6303 102.242 24.4069 102.003 24.2459C101.764 24.0849 101.455 24.0044 101.076 24.0044C100.728 24.0044 100.439 24.0719 100.211 24.2069C99.9874 24.342 99.8212 24.5264 99.7121 24.7601C99.6082 24.9938 99.5563 25.2613 99.5563 25.5626C99.5563 25.7704 99.6004 25.9599 99.6887 26.1314C99.777 26.2976 99.9043 26.4508 100.07 26.591C100.237 26.7313 100.439 26.8637 100.678 26.9884C100.917 27.113 101.192 27.2325 101.504 27.3468C102.034 27.539 102.496 27.7519 102.891 27.9857C103.286 28.2194 103.61 28.4817 103.865 28.7726C104.124 29.0582 104.317 29.3829 104.441 29.7465C104.571 30.11 104.636 30.523 104.636 30.9853C104.636 31.4527 104.556 31.8786 104.395 32.263C104.239 32.6422 104.01 32.9668 103.709 33.2369C103.408 33.507 103.044 33.7174 102.618 33.868C102.192 34.0134 101.714 34.0861 101.185 34.0861C100.696 34.0861 100.226 34.0134 99.7744 33.868C99.3277 33.7226 98.9278 33.5018 98.5746 33.2057C98.2214 32.9045 97.9409 32.5279 97.7331 32.076C97.5306 31.6241 97.4293 31.0943 97.4293 30.4866H99.3225C99.3225 30.8502 99.3667 31.1619 99.455 31.4216C99.5433 31.6761 99.6705 31.8864 99.8368 32.0527C100.008 32.2137 100.208 32.3331 100.437 32.411C100.67 32.4838 100.93 32.5201 101.216 32.5201C101.569 32.5201 101.857 32.4578 102.081 32.3331C102.309 32.2033 102.478 32.0241 102.587 31.7955C102.696 31.567 102.751 31.3021 102.751 31.0008Z" fill="#96B4DC"/>
<path d="M108.481 27.1208V37.1715H106.673V25.5003H108.333L108.481 27.1208ZM113.015 29.3803V30.0503C113.015 30.71 112.955 31.2917 112.836 31.7955C112.716 32.2994 112.54 32.7227 112.306 33.0655C112.078 33.4031 111.794 33.6576 111.457 33.829C111.119 34.0004 110.724 34.0861 110.273 34.0861C109.847 34.0861 109.475 33.9927 109.158 33.8057C108.847 33.6187 108.584 33.3564 108.372 33.0188C108.159 32.6811 107.987 32.2812 107.857 31.8189C107.733 31.3514 107.642 30.8424 107.585 30.2918V29.2634C107.642 28.6817 107.73 28.1519 107.85 27.674C107.974 27.191 108.143 26.7754 108.356 26.4274C108.574 26.0794 108.839 25.8119 109.151 25.6249C109.462 25.4379 109.834 25.3444 110.265 25.3444C110.717 25.3444 111.114 25.425 111.457 25.586C111.8 25.747 112.085 25.9937 112.314 26.3261C112.548 26.6586 112.722 27.0793 112.836 27.5883C112.955 28.0921 113.015 28.6895 113.015 29.3803ZM111.2 30.0503V29.3803C111.2 28.9492 111.171 28.5778 111.114 28.2661C111.062 27.9493 110.974 27.6896 110.849 27.487C110.73 27.2844 110.576 27.1338 110.389 27.0351C110.208 26.9364 109.982 26.8871 109.712 26.8871C109.473 26.8871 109.262 26.9364 109.081 27.0351C108.899 27.1338 108.745 27.2715 108.621 27.4481C108.496 27.6195 108.397 27.8246 108.325 28.0636C108.252 28.2973 108.205 28.5518 108.185 28.8271V30.7359C108.231 31.0684 108.309 31.3748 108.418 31.6553C108.527 31.9306 108.686 32.1513 108.894 32.3176C109.106 32.4838 109.384 32.5669 109.727 32.5669C109.992 32.5669 110.218 32.5149 110.405 32.411C110.592 32.3072 110.743 32.1513 110.857 31.9436C110.976 31.7358 111.062 31.4761 111.114 31.1645C111.171 30.8476 111.2 30.4762 111.2 30.0503Z" fill="#96B4DC"/>
<path d="M116.953 25.5003V33.9303H115.138V25.5003H116.953ZM115.044 23.2954C115.044 23.0045 115.132 22.763 115.309 22.5708C115.486 22.3734 115.732 22.2747 116.049 22.2747C116.366 22.2747 116.613 22.3734 116.789 22.5708C116.966 22.763 117.054 23.0045 117.054 23.2954C117.054 23.5758 116.966 23.8122 116.789 24.0044C116.613 24.1965 116.366 24.2926 116.049 24.2926C115.732 24.2926 115.486 24.1965 115.309 24.0044C115.132 23.8122 115.044 23.5758 115.044 23.2954Z" fill="#96B4DC"/>
<path d="M121.296 21.9631V33.9303H119.481V21.9631H121.296Z" fill="#96B4DC"/>
<path d="M125.639 21.9631V33.9303H123.824V21.9631H125.639Z" fill="#96B4DC"/>
<path d="M131.284 34.0861C130.738 34.0861 130.252 34.0056 129.827 33.8446C129.401 33.6784 129.04 33.4343 128.744 33.1123C128.448 32.785 128.222 32.3851 128.066 31.9124C127.91 31.4346 127.832 30.8814 127.832 30.2529V29.4426C127.832 28.731 127.913 28.1181 128.074 27.6039C128.24 27.0845 128.468 26.6586 128.759 26.3261C129.05 25.9937 129.393 25.747 129.788 25.586C130.188 25.425 130.621 25.3444 131.089 25.3444C131.619 25.3444 132.078 25.4301 132.468 25.6016C132.857 25.773 133.177 26.0301 133.426 26.3729C133.681 26.7157 133.868 27.139 133.987 27.6428C134.112 28.1467 134.174 28.7258 134.174 29.3803V30.2918H128.705V28.9206H132.382V28.7258C132.372 28.3415 132.325 28.0116 132.242 27.7363C132.159 27.4559 132.024 27.2429 131.837 27.0975C131.655 26.9468 131.403 26.8715 131.081 26.8715C130.847 26.8715 130.639 26.9157 130.458 27.004C130.276 27.0923 130.125 27.2351 130.006 27.4325C129.891 27.6299 129.803 27.8948 129.741 28.2272C129.679 28.5544 129.647 28.9596 129.647 29.4426V30.2529C129.647 30.6736 129.684 31.0294 129.756 31.3203C129.834 31.6111 129.949 31.8501 130.099 32.0371C130.25 32.2189 130.432 32.3539 130.645 32.4422C130.863 32.5253 131.115 32.5669 131.4 32.5669C131.821 32.5669 132.182 32.489 132.483 32.3331C132.79 32.1721 133.055 31.9644 133.278 31.7098L134.081 32.824C133.93 33.0265 133.727 33.2265 133.473 33.4239C133.218 33.6161 132.909 33.7745 132.546 33.8992C132.187 34.0238 131.767 34.0861 131.284 34.0861Z" fill="#96B4DC"/>
<path d="M139.514 25.5003V26.9027H135.377V25.5003H139.514ZM136.507 23.4356H138.315V31.5774C138.315 31.8371 138.343 32.0345 138.4 32.1695C138.457 32.3046 138.538 32.3955 138.642 32.4422C138.746 32.489 138.868 32.5123 139.008 32.5123C139.112 32.5123 139.213 32.5045 139.312 32.489C139.416 32.4682 139.491 32.45 139.538 32.4344V33.8992C139.403 33.9511 139.247 33.9952 139.07 34.0316C138.894 34.068 138.681 34.0861 138.431 34.0861C138.063 34.0861 137.733 34.0108 137.442 33.8602C137.151 33.7044 136.923 33.4525 136.756 33.1045C136.59 32.7513 136.507 32.2838 136.507 31.702V23.4356Z" fill="#96B4DC"/>
<defs>
<clipPath id="clip0_704_3169">
<rect width="59.8362" height="34.5721" fill="white" transform="translate(0.0933685 1.78123)"/>
</clipPath>
</defs>
</svg>
