<svg width="59" height="29" xmlns="http://www.w3.org/2000/svg"><g fill="#CECECE" fill-rule="nonzero"><path d="M0 29h20.228V14.307H0V29zm7.156-8.497l1.907 1.965 4.417-4.55 1.418 1.46-5.835 6.012-3.325-3.426 1.418-1.46zM5.966 7.792c0-2.351 1.858-4.266 4.156-4.266 2.282 0 4.14 1.915 4.14 4.266v4.416h3.423V7.792C17.67 3.492 14.28 0 10.122 0 5.95 0 2.56 3.493 2.56 7.792v4.416h3.423V7.792h-.016zm30.839 5.239c0-2.116-1.206-3.325-3.113-4.064l-1.76-.772c-1.403-.521-2.38-.874-2.38-1.764 0-.873.733-1.36 1.825-1.36 1.418 0 2.33.437 3.341 1.192l1.663-2.132a6.963 6.963 0 0 0-4.825-1.965c-3.13 0-5.313 1.965-5.313 4.45 0 2.183 1.467 3.46 3.097 4.08l1.874.823c1.385.588 2.25.874 2.25 1.931 0 .756-.653 1.31-2.038 1.31-1.402 0-2.755-.638-3.847-1.561l-1.89 2.317a8.163 8.163 0 0 0 5.509 2.15c3.586 0 5.607-2.167 5.607-4.635zm8.003-4.064l-1.76-.772c-1.402-.521-2.38-.874-2.38-1.764 0-.873.733-1.36 1.825-1.36 1.418 0 2.331.437 3.342 1.192l1.662-2.132a6.963 6.963 0 0 0-4.824-1.965c-3.13 0-5.314 1.965-5.314 4.45 0 2.183 1.467 3.46 3.097 4.08l1.874.823c1.386.588 2.25.874 2.25 1.931 0 .756-.652 1.31-2.038 1.31-1.401 0-2.754-.638-3.846-1.561l-1.891 2.317a8.163 8.163 0 0 0 5.51 2.15c3.601 0 5.623-2.15 5.623-4.635-.017-2.116-1.207-3.325-3.13-4.064zM52.466 14.78V2.521h-3.3v15.13H59V14.78zM28.79 22.794l-.842-.4c-.514-.243-1.076-.47-1.076-1.112 0-.609.468-.974 1.17-.974.623 0 1.075.244 1.48.626l.406-.556a2.49 2.49 0 0 0-1.855-.835c-1.138 0-1.964.748-1.964 1.773 0 .974.701 1.46 1.293 1.72l.858.418c.608.296 1.075.504 1.075 1.217 0 .625-.483 1.06-1.31 1.06-.685 0-1.308-.33-1.76-.834l-.453.59c.546.609 1.294.991 2.183.991 1.325 0 2.12-.851 2.12-1.912 0-.99-.593-1.442-1.325-1.772zM32.699 22.884h2.418v-.688h-2.418v-1.981h2.856v-.672h-3.597v6.305h3.688v-.688h-2.947zM39.659 25.717c-1.19 0-1.963-1.055-1.963-2.732 0-1.66.772-2.698 1.963-2.698.515 0 .933.242 1.239.605l.45-.536a2.2 2.2 0 0 0-1.69-.813c-1.608 0-2.783 1.315-2.783 3.46 0 2.178 1.175 3.458 2.703 3.458.821 0 1.433-.363 1.915-.968l-.45-.52c-.37.485-.805.744-1.384.744zm6.437-1.867c0 1.383-.564 1.885-1.32 1.885-.74 0-1.303-.502-1.303-1.885v-4.168h-.789v4.15c0 1.903.885 2.646 2.092 2.646s2.076-.726 2.076-2.646v-4.15h-.772v4.168h.016zm6.549-2.3c0-1.384-.901-1.868-2.156-1.868h-1.931v6.658h.788V23.52h1.11l1.497 2.819h.901l-1.577-2.905c.805-.225 1.368-.848 1.368-1.885zm-2.285 1.28h-1.03v-2.474h1.03c.965 0 1.496.312 1.496 1.194 0 .864-.53 1.28-1.496 1.28zM55.45 22.884h2.409v-.688H55.45v-1.981h2.845v-.672h-3.597v6.305h3.687v-.688H55.45z"/></g></svg>