<svg width="24" height="24" viewBox="0 0 24 24" fill="none" xmlns="http://www.w3.org/2000/svg">
<path d="M5.45459 20.5506C5.45459 20.6923 5.51206 20.8283 5.61435 20.9285C5.71664 21.0287 5.85538 21.085 6.00004 21.085H18C18.1447 21.085 18.2834 21.0287 18.3857 20.9285C18.488 20.8283 18.5455 20.6923 18.5455 20.5506V6.12146H5.45459V20.5506ZM10.3637 13.6032C10.219 13.6032 10.0803 13.5469 9.97799 13.4467C9.87569 13.3465 9.81823 13.2106 9.81823 13.0688V10.9312C9.81823 10.7894 9.87569 10.6535 9.97799 10.5533C10.0803 10.4531 10.219 10.3968 10.3637 10.3968H11.4546V9.86235C11.4546 9.72062 11.5121 9.58468 11.6143 9.48446C11.7166 9.38424 11.8554 9.32794 12 9.32794C12.1447 9.32794 12.2834 9.38424 12.3857 9.48446C12.488 9.58468 12.5455 9.72062 12.5455 9.86235V10.3968H13.6364C13.7811 10.3968 13.9198 10.4531 14.0221 10.5533C14.1244 10.6535 14.1819 10.7894 14.1819 10.9312C14.1819 11.0729 14.1244 11.2088 14.0221 11.3091C13.9198 11.4093 13.7811 11.4656 13.6364 11.4656H10.9091V12.5344H13.6364C13.7811 12.5344 13.9198 12.5907 14.0221 12.6909C14.1244 12.7912 14.1819 12.9271 14.1819 13.0688V15.2065C14.1819 15.3482 14.1244 15.4841 14.0221 15.5844C13.9198 15.6846 13.7811 15.7409 13.6364 15.7409H12.5455V16.2753C12.5455 16.417 12.488 16.553 12.3857 16.6532C12.2834 16.7534 12.1447 16.8097 12 16.8097C11.8554 16.8097 11.7166 16.7534 11.6143 16.6532C11.5121 16.553 11.4546 16.417 11.4546 16.2753V15.7409H10.3637C10.219 15.7409 10.0803 15.6846 9.97799 15.5844C9.87569 15.4841 9.81823 15.3482 9.81823 15.2065C9.81823 15.0647 9.87569 14.9288 9.97799 14.8286C10.0803 14.7284 10.219 14.6721 10.3637 14.6721H13.091V13.6032H10.3637Z" fill="#4FFF6D"/>
<path d="M21.2726 2.91498H2.72718C2.29319 2.91498 1.87698 3.08389 1.5701 3.38456C1.26322 3.68522 1.09082 4.09301 1.09082 4.51822V6.65587C1.09082 7.08107 1.26322 7.48886 1.5701 7.78953C1.87698 8.0902 2.29319 8.25911 2.72718 8.25911H4.36355V6.12146H3.81809C3.67343 6.12146 3.53469 6.06515 3.4324 5.96493C3.33011 5.86471 3.27264 5.72878 3.27264 5.58704C3.27264 5.44531 3.33011 5.30938 3.4324 5.20916C3.53469 5.10893 3.67343 5.05263 3.81809 5.05263H20.1817C20.3264 5.05263 20.4651 5.10893 20.5674 5.20916C20.6697 5.30938 20.7272 5.44531 20.7272 5.58704C20.7272 5.72878 20.6697 5.86471 20.5674 5.96493C20.4651 6.06515 20.3264 6.12146 20.1817 6.12146H19.6363V8.25911H21.2726C21.7066 8.25911 22.1228 8.0902 22.4297 7.78953C22.7366 7.48886 22.909 7.08107 22.909 6.65587V4.51822C22.909 4.09301 22.7366 3.68522 22.4297 3.38456C22.1228 3.08389 21.7066 2.91498 21.2726 2.91498Z" fill="#4FFF6D"/>
</svg>
